<svg xmlns="http://www.w3.org/2000/svg" width="32cm" height="13cm" viewBox="40 -62 622 243"><path fill="#ff0" d="M560 33.333C576 23.333 584 20 600 20s24 3.333 40 13.333v53.334c-16 10-24 13.333-40 13.333s-24-3.333-40-13.333V33.333z"/><path fill="none" stroke="#000" stroke-width="2" d="M560 33.333C576 23.333 584 20 600 20s24 3.333 40 13.333v53.334c-16 10-24 13.333-40 13.333s-24-3.333-40-13.333V33.333"/><path fill="none" stroke="#000" stroke-width="2" d="M560 33.333c16 10 24 13.334 40 13.334s24-3.334 40-13.334"/><text x="600" y="71.667" font-family="sans-serif" font-size="12.8" font-weight="400" text-anchor="middle"><tspan x="600" y="71.667">Blockchain</tspan></text><path fill="#1e90ff" d="M80 20h120v68.571c-24-11.428-36-11.428-60 0-24 11.429-36 11.429-60 0V20z"/><path fill="none" stroke="#000" stroke-width="2" d="M80 20h120v68.571c-24-11.428-36-11.428-60 0-24 11.429-36 11.429-60 0V20"/><text x="140" y="53.571" fill="#fff" font-family="sans-serif" font-size="12.8" font-weight="400" text-anchor="middle"><tspan x="140" y="53.571">Digital Asset</tspan></text><path fill="#fff" d="M260 20h100v80H260z"/><path fill="none" stroke="#000" stroke-width="2" d="M260 20h100v80H260z"/><text x="310" y="48.8" font-family="sans-serif" font-size="12.8" font-weight="400" text-anchor="middle"><tspan x="310" y="48.8">Mint</tspan> <tspan x="310" y="64.8">Digital</tspan> <tspan x="310" y="80.8">Asset</tspan></text><path fill="#90ee90" d="M86.313-60h105.25c14.531 0 26.312 8.954 26.312 20s-11.781 20-26.312 20H86.313C71.78-20 60-28.954 60-40s11.78-20 26.313-20z"/><path fill="none" stroke="#000" stroke-width="2" d="M86.313-60h105.25c14.531 0 26.312 8.954 26.312 20s-11.781 20-26.312 20H86.313C71.78-20 60-28.954 60-40s11.78-20 26.313-20"/><text x="138.938" y="-35" font-family="sans-serif" font-size="12.8" font-weight="400" text-anchor="middle"><tspan x="138.938" y="-35">Start Minting NFT</tspan></text><path fill="#fff" d="M436.667 20H520c-12.5 16-16.667 24-16.667 40S507.5 84 520 100h-83.333C424.167 84 420 76 420 60s4.167-24 16.667-40z"/><path fill="none" stroke="#000" stroke-width="2" d="M436.667 20H520c-12.5 16-16.667 24-16.667 40S507.5 84 520 100h-83.333C424.167 84 420 76 420 60s4.167-24 16.667-40"/><text x="470" y="49" font-family="sans-serif" font-size="12.8" font-weight="400" text-anchor="middle"><tspan x="470" y="49">Non</tspan> <tspan x="470" y="65">Fungible</tspan> <tspan x="470" y="81">Token</tspan></text><path fill="red" d="M560 140h80c11.046 0 20 8.954 20 20s-8.954 20-20 20h-80c-11.046 0-20-8.954-20-20s8.954-20 20-20z"/><path fill="none" stroke="#000" stroke-width="2" d="M560 140h80c11.046 0 20 8.954 20 20s-8.954 20-20 20h-80c-11.046 0-20-8.954-20-20s8.954-20 20-20"/><text x="600" y="165" fill="#fff" font-family="sans-serif" font-size="12.8" font-weight="400" text-anchor="middle"><tspan x="600" y="165">Profit</tspan></text><path d="M40 127.2h189.55v15.45H40z"/><text x="40" y="140" fill="#fff" font-family="sans-serif" font-size="12.8" font-weight="400"><tspan x="40" y="140">The asset that you think you own</tspan></text><path d="M400-12.8h162.9V2.65H400z"/><text x="400" fill="#fff" font-family="sans-serif" font-size="12.8" font-weight="400"><tspan x="400" y="0">The receipt you actually own</tspan></text><path fill="none" stroke="#000" stroke-width="2" d="M138.938-20l.803 30.267"/><path d="M139.941 17.765L134.677 7.9l5.064 2.366 4.932-2.632z"/><path fill="none" stroke="#000" stroke-width="2" d="M139.941 17.765L134.677 7.9l5.064 2.366 4.932-2.632zM201.003 60h49.261"/><path d="M257.764 60l-10 5 2.5-5-2.5-5z"/><path fill="none" stroke="#000" stroke-width="2" d="M257.764 60l-10 5 2.5-5-2.5-5zM360 60h50.264"/><path d="M417.764 60l-10 5 2.5-5-2.5-5z"/><path fill="none" stroke="#000" stroke-width="2" d="M417.764 60l-10 5 2.5-5-2.5-5zm85.569 0h45.937"/><path d="M556.77 60l-10 5 2.5-5-2.5-5z"/><path fill="none" stroke="#000" stroke-width="2" d="M556.77 60l-10 5 2.5-5-2.5-5zM600 100v30.264"/><path d="M600 137.764l-5-10 5 2.5 5-2.5z"/><path fill="none" stroke="#000" stroke-width="2" d="M600 137.764l-5-10 5 2.5 5-2.5z"/></svg>