<?xml version="1.0" encoding="UTF-8" standalone="no"?>
<!DOCTYPE svg PUBLIC "-//W3C//DTD SVG 1.0//EN" "http://www.w3.org/TR/2001/PR-SVG-20010719/DTD/svg10.dtd">
<svg width="44cm" height="22cm" viewBox="-58 -142 879 423" xmlns="http://www.w3.org/2000/svg" xmlns:xlink="http://www.w3.org/1999/xlink">
  <g>
    <rect style="fill: #eaea37" x="360" y="80" width="120" height="80"/>
    <rect style="fill: none; fill-opacity:0; stroke-width: 2; stroke: #000000" x="360" y="80" width="120" height="80"/>
    <text font-size="12.8" style="fill: #000000;text-anchor:middle;font-family:sans-serif;font-style:normal;font-weight:normal" x="420" y="107.9">
      <tspan x="420" y="107.9">Mint</tspan>
      <tspan x="420" y="123.9">Digital</tspan>
      <tspan x="420" y="139.9">Asset</tspan>
    </text>
  </g>
  <g>
    <path style="fill: #f8f83e" d="M 700 93.3333 C 716,83.3333 724,80 740,80 C 756,80 764,83.3333 780,93.3333 L 780,146.667 C 764,156.667 756,160 740,160 C 724,160 716,156.667 700,146.667 L 700,93.3333z"/>
    <path style="fill: none; fill-opacity:0; stroke-width: 2; stroke: #000000" d="M 700 93.3333 C 716,83.3333 724,80 740,80 C 756,80 764,83.3333 780,93.3333 L 780,146.667 C 764,156.667 756,160 740,160 C 724,160 716,156.667 700,146.667 L 700,93.3333"/>
    <path style="fill: none; fill-opacity:0; stroke-width: 2; stroke: #000000" d="M 700 93.3333 C 716,103.333 724,106.667 740,106.667 C 756,106.667 764,103.333 780,93.3333"/>
    <text font-size="12.8" style="fill: #000000;text-anchor:middle;font-family:sans-serif;font-style:normal;font-weight:normal" x="740" y="130.667">
      <tspan x="740" y="130.667">Blockchain</tspan>
    </text>
  </g>
  <g>
    <path style="fill: #ffffff" d="M 556.288 80 L 637.725,80 C 625.509,96 621.438,104 621.438,120 C 621.438,136 625.509,144 637.725,160 L 556.288,160 C 544.072,144 540,136 540,120 C 540,104 544.072,96 556.288,80z"/>
    <path style="fill: none; fill-opacity:0; stroke-width: 2; stroke: #000000" d="M 556.288 80 L 637.725,80 C 625.509,96 621.438,104 621.438,120 C 621.438,136 625.509,144 637.725,160 L 556.288,160 C 544.072,144 540,136 540,120 C 540,104 544.072,96 556.288,80"/>
    <text font-size="12.8" style="fill: #000000;text-anchor:middle;font-family:sans-serif;font-style:normal;font-weight:normal" x="588.863" y="108">
      <tspan x="588.863" y="108">Non</tspan>
      <tspan x="588.863" y="124">Fungable</tspan>
      <tspan x="588.863" y="140">Token</tspan>
    </text>
  </g>
  <g>
    <path style="fill: #90ee90" d="M 133.263 -140 L 266.313,-140 C 284.683,-140 299.575,-126.569 299.575,-110 C 299.575,-93.4314 284.683,-80 266.313,-80 L 133.263,-80 C 114.892,-80 100,-93.4314 100,-110 C 100,-126.569 114.892,-140 133.263,-140z"/>
    <path style="fill: none; fill-opacity:0; stroke-width: 2; stroke: #000000" d="M 133.263 -140 L 266.313,-140 C 284.683,-140 299.575,-126.569 299.575,-110 C 299.575,-93.4314 284.683,-80 266.313,-80 L 133.263,-80 C 114.892,-80 100,-93.4314 100,-110 C 100,-126.569 114.892,-140 133.263,-140"/>
    <text font-size="12.8" style="fill: #000000;text-anchor:middle;font-family:sans-serif;font-style:normal;font-weight:normal" x="199.788" y="-106">
      <tspan x="199.788" y="-106">Start Miniting a NFT</tspan>
    </text>
  </g>
  <g>
    <path style="fill: #f62626" d="M 686.667 220 L 793.333,220 C 808.061,220 820,233.431 820,250 C 820,266.569 808.061,280 793.333,280 L 686.667,280 C 671.939,280 660,266.569 660,250 C 660,233.431 671.939,220 686.667,220z"/>
    <path style="fill: none; fill-opacity:0; stroke-width: 2; stroke: #000000" d="M 686.667 220 L 793.333,220 C 808.061,220 820,233.431 820,250 C 820,266.569 808.061,280 793.333,280 L 686.667,280 C 671.939,280 660,266.569 660,250 C 660,233.431 671.939,220 686.667,220"/>
    <text font-size="12.8" style="fill: #000000;text-anchor:middle;font-family:sans-serif;font-style:normal;font-weight:normal" x="740" y="254">
      <tspan x="740" y="254">Profit</tspan>
    </text>
  </g>
  <g>
    <path style="fill: #1e90ff" d="M 120 -40 L 280,-40 L 280,28.5714 C 248,17.1429 232,17.1429 200,28.5714 C 168,40 152,40 120,28.5714 L 120,-40z"/>
    <path style="fill: none; fill-opacity:0; stroke-width: 2; stroke: #000000" d="M 120 -40 L 280,-40 L 280,28.5714 C 248,17.1429 232,17.1429 200,28.5714 C 168,40 152,40 120,28.5714 L 120,-40"/>
    <text font-size="12.8" style="fill: #000000;text-anchor:middle;font-family:sans-serif;font-style:normal;font-weight:normal" x="200" y="-7.42857">
      <tspan x="200" y="-7.42857">Digital Asset</tspan>
    </text>
  </g>
  <g>
    <line style="fill: none; fill-opacity:0; stroke-width: 2; stroke: #000000" x1="199.847" y1="-78.9954" x2="199.902" y2="-50.7309"/>
    <polygon style="fill: #000000" points="199.916,-43.2309 194.897,-53.2213 199.902,-50.7309 204.897,-53.2406 "/>
    <polygon style="fill: none; fill-opacity:0; stroke-width: 2; stroke: #000000" points="199.916,-43.2309 194.897,-53.2213 199.902,-50.7309 204.897,-53.2406 "/>
  </g>
  <g>
    <polygon style="fill: #ffffff" points="102.543,80 324.263,80 295.146,160 73.425,160 "/>
    <polygon style="fill: none; fill-opacity:0; stroke-width: 2; stroke: #000000" points="102.543,80 324.263,80 295.146,160 73.425,160 "/>
    <text font-size="12.8" style="fill: #000000;text-anchor:middle;font-family:sans-serif;font-style:normal;font-weight:normal" x="198.844" y="107.9">
      <tspan x="198.844" y="107.9">Get binary repersentation of</tspan>
      <tspan x="198.844" y="123.9">the Digital Asset</tspan>
      <tspan x="198.844" y="139.9">(1s &amp; 0s)</tspan>
    </text>
  </g>
  <text font-size="12.8" style="fill: #000000;text-anchor:middle;font-family:sans-serif;font-style:normal;font-weight:normal" x="180" y="180">
    <tspan x="180" y="180">Note: it is already stores as</tspan>
    <tspan x="180" y="196">1s &amp; 0s on a computer</tspan>
  </text>
  <g>
    <line style="fill: none; fill-opacity:0; stroke-width: 2; stroke: #000000" x1="199.714" y1="29.7217" x2="199.332" y2="69.3659"/>
    <polygon style="fill: #000000" points="199.26,76.8656 194.356,66.8179 199.332,69.3659 204.356,66.9142 "/>
    <polygon style="fill: none; fill-opacity:0; stroke-width: 2; stroke: #000000" points="199.26,76.8656 194.356,66.8179 199.332,69.3659 204.356,66.9142 "/>
  </g>
  <g>
    <line style="fill: none; fill-opacity:0; stroke-width: 2; stroke: #000000" x1="310.347" y1="120" x2="349.306" y2="120"/>
    <polygon style="fill: #000000" points="356.806,120 346.806,125 349.306,120 346.806,115 "/>
    <polygon style="fill: none; fill-opacity:0; stroke-width: 2; stroke: #000000" points="356.806,120 346.806,125 349.306,120 346.806,115 "/>
  </g>
  <g>
    <line style="fill: none; fill-opacity:0; stroke-width: 2; stroke: #000000" x1="480.994" y1="120" x2="530.258" y2="120"/>
    <polygon style="fill: #000000" points="537.758,120 527.758,125 530.258,120 527.758,115 "/>
    <polygon style="fill: none; fill-opacity:0; stroke-width: 2; stroke: #000000" points="537.758,120 527.758,125 530.258,120 527.758,115 "/>
  </g>
  <g>
    <line style="fill: none; fill-opacity:0; stroke-width: 2; stroke: #000000" x1="622.327" y1="120" x2="689.276" y2="120"/>
    <polygon style="fill: #000000" points="696.776,120 686.776,125 689.276,120 686.776,115 "/>
    <polygon style="fill: none; fill-opacity:0; stroke-width: 2; stroke: #000000" points="696.776,120 686.776,125 689.276,120 686.776,115 "/>
  </g>
  <g>
    <line style="fill: none; fill-opacity:0; stroke-width: 2; stroke: #000000" x1="740" y1="159.998" x2="740" y2="209.272"/>
    <polygon style="fill: #000000" points="740,216.772 735,206.772 740,209.272 745,206.772 "/>
    <polygon style="fill: none; fill-opacity:0; stroke-width: 2; stroke: #000000" points="740,216.772 735,206.772 740,209.272 745,206.772 "/>
  </g>
  <text font-size="12.8" style="fill: #000000;text-anchor:middle;font-family:sans-serif;font-style:normal;font-weight:normal" x="600" y="20">
    <tspan x="600" y="20">The repersentation of the binary</tspan>
    <tspan x="600" y="36">repersentation of the Asset.</tspan>
    <tspan x="600" y="52">What you actually own.</tspan>
  </text>
  <text font-size="12.8" style="fill: #000000;text-anchor:middle;font-family:sans-serif;font-style:normal;font-weight:normal" x="20" y="-20">
    <tspan x="20" y="-20">What you think you own</tspan>
    <tspan x="20" y="-4">that you do not own.</tspan>
  </text>
</svg>
