<svg xmlns="http://www.w3.org/2000/svg" xmlns:svg="http://www.w3.org/2000/svg" id="svg9656" width="105mm" height="148mm" version="1.1" viewBox="0 0 396.85 559.37" xml:space="preserve"><title id="title1529">Logo</title><g id="layer1"><g id="g2295"><path style="fill:#b98abf;fill-opacity:1" id="path928" d="m 105.18912,46.431961 29.66478,40.555117 c 0,0 5.25694,-5.664543 7.55652,-8.760246 2.3314,-3.138551 6.29021,-9.899841 6.29021,-9.899841 l -27.06127,-35.90281 z"/><path style="fill:#b98abf;fill-opacity:1" id="path663" d="m 66.180634,80.531278 47.102346,66.103882 c 0,0 1.36082,-9.73564 2.33717,-14.54971 0.65565,-3.2328 2.36114,-9.61003 2.36114,-9.61003 L 78.485614,69.996871 Z"/><path style="fill:#6ab9d9;fill-opacity:1" id="path258" d="m 138.10591,235.52966 c 0,0 -8.80287,-12.13665 -12.45081,-18.6658 -3.03905,-5.43936 -7.80518,-16.98474 -7.80518,-16.98474 H 56.692913 v -23.96076 h 55.899907 c 0,0 -0.58182,-14.4106 -0.10696,-21.59251 0.54187,-8.19548 1.5985,-16.38813 3.36512,-24.40927 1.40953,-6.3998 3.18375,-12.76952 5.74535,-18.80131 3.88755,-9.15398 8.92789,-17.835015 14.47747,-26.087922 5.92845,-8.81633 12.42003,-17.367183 19.97538,-24.836517 10.2554,-10.138645 21.34511,-19.848813 34.02056,-26.726199 2.93305,-1.591403 9.47606,-3.228411 9.47606,-3.228411 l 0.0559,6.71748 c 0,0 -10.59317,8.2564 -15.53057,12.79712 -4.4766,4.11693 -8.71817,8.49904 -12.73879,13.06233 -6.51726,7.39691 -12.66352,15.136757 -18.40449,23.151137 -4.47937,6.25319 -9.29857,12.406422 -12.48249,19.408552 -4.65787,10.24367 -8.24267,21.2316 -9.39376,32.4255 -1.34829,13.11159 0.38214,26.51561 3.0433,39.4249 2.00406,9.72175 5.75554,19.04018 9.63682,28.17606 2.96918,6.98897 6.35377,13.23969 10.39653,20.26987 z"/></g><g id="g2290"><path style="fill:#b98abf;fill-opacity:1" id="path1075" d="m 349.66903,360.17339 -65.06476,-88.82597 c 0,0 1.32937,11.97268 1.81775,17.97511 0.51069,6.27653 1.16276,18.85599 1.16276,18.85599 l 46.16469,68.15215 z"/><path style="fill:#b98abf;fill-opacity:1" id="path1008" d="M 297.49108,413.54237 266.63323,372.0679 c 0,0 3.30111,-6.80744 5.05132,-10.16039 2.4225,-4.6409 7.54053,-13.77676 7.54053,-13.77676 l 35.08545,47.98604 z"/><path style="fill:#73d97a;fill-opacity:1" id="path258-1" d="m 262.20455,225.34764 c 0,0 8.80287,12.13665 12.45081,18.6658 3.03905,5.43936 8.25909,18.93583 10.43373,28.96512 2.37928,10.97306 3.21037,26.39098 2.73551,33.57289 -0.54187,8.19548 -1.5985,16.38813 -3.36512,24.40927 -1.40953,6.3998 -3.18375,12.76952 -5.74535,18.80131 -3.88755,9.15398 -8.92789,17.83499 -14.47747,26.0879 -5.92845,8.81633 -12.48051,17.3065 -19.97538,24.83652 -10.10949,10.1569 -20.65297,20.50267 -33.37443,27.1003 -3.11202,1.61397 -10.12219,2.85431 -10.12219,2.85431 l -0.0559,-6.71748 c 0,0 10.59317,-8.2564 15.53057,-12.79712 4.4766,-4.11693 8.71817,-8.49904 12.73879,-13.06233 6.51726,-7.39691 12.66352,-15.13676 18.40449,-23.15114 4.47937,-6.25319 9.29857,-12.40641 12.48249,-19.40853 4.65787,-10.24367 8.24267,-21.2316 9.39376,-32.4255 1.34829,-13.11159 -0.38214,-26.51561 -3.0433,-39.4249 -2.00406,-9.72175 -5.75554,-19.04018 -9.63682,-28.17606 -2.96918,-6.98897 -6.35377,-13.23969 -10.39653,-20.26987 z"/></g><g id="g2285"><path id="path2068" style="fill:#b98abf;stroke:none;stroke-width:9.93588;stroke-dasharray:none;fill-opacity:1" d="m 213.62642,263.02145 a 40.461708,40.461708 0 0 0 -40.46094,40.46093 40.461708,40.461708 0 0 0 40.46094,40.46094 40.461708,40.461708 0 0 0 40.46093,-40.46094 40.461708,40.461708 0 0 0 -40.46093,-40.46093 z m 6.90234,9.56445 a 24.158756,30.832609 0 0 1 24.1582,30.83203 24.158756,30.832609 0 0 1 -24.1582,30.83399 24.158756,30.832609 0 0 1 -24.1582,-30.83399 24.158756,30.832609 0 0 1 24.1582,-30.83203 z"/><path id="path1939" style="fill:#b98abf;stroke:none;stroke-width:9.67269;stroke-dasharray:none;fill-opacity:1" d="m 200.01488,120.8185 a 24.318663,24.318663 0 0 0 -24.31836,24.32031 24.318663,24.318663 0 0 0 24.31836,24.31836 24.318663,24.318663 0 0 0 24.31835,-24.31836 24.318663,24.318663 0 0 0 -24.31835,-24.32031 z m -4.9043,8.98633 a 13.260121,15.681892 0 0 1 13.25976,15.68164 13.260121,15.681892 0 0 1 -13.25976,15.68164 13.260121,15.681892 0 0 1 -13.25977,-15.68164 13.260121,15.681892 0 0 1 13.25977,-15.68164 z"/></g><g id="g2266" transform="translate(4.7022016e-7,8.4409448)"><path style="fill:#73d97a;fill-opacity:1;stroke:none;stroke-width:10.9606;stroke-dasharray:none" id="path2160" d="m 202.48428,488.61322 9.8e-4,30.65299 19.44002,0.001 -0.006,-30.52599 c 0,0 -6.1939,1.73555 -9.37053,1.73557 -3.41189,10e-6 -10.06451,-1.86401 -10.06451,-1.86401 z"/><path id="path2076" style="fill:#b98abf;stroke:none;stroke-width:11.6351;stroke-dasharray:none;fill-opacity:1" d="m 212.58033,441.75228 a 24.513565,24.513565 0 0 0 -24.51367,24.51367 24.513565,24.513565 0 0 0 24.51367,24.51368 24.513565,24.513565 0 0 0 24.51367,-24.51368 24.513565,24.513565 0 0 0 -24.51367,-24.51367 z m -0.55664,5.85742 a 15.749288,15.749288 0 0 1 15.75,15.75 15.749288,15.749288 0 0 1 -15.75,15.74805 15.749288,15.749288 0 0 1 -15.74805,-15.74805 15.749288,15.749288 0 0 1 15.74805,-15.75 z"/></g><path style="fill:#000;stroke-width:10.9606" id="path316" d="m 203.30158,532.13704 h 23.58776"/></g><metadata id="metadata1442"/></svg>