<?xml version="1.0" standalone="no"?>
<!DOCTYPE svg PUBLIC "-//W3C//DTD SVG 20010904//EN"
 "http://www.w3.org/TR/2001/REC-SVG-20010904/DTD/svg10.dtd">
<svg version="1.0" xmlns="http://www.w3.org/2000/svg"
 width="1024.000000pt" height="1024.000000pt" viewBox="0 0 1024.000000 1024.000000"
 preserveAspectRatio="xMidYMid meet">
<metadata>
Created by potrace 1.14, written by Peter Selinger 2001-2017
</metadata>
<g transform="translate(0.000000,1024.000000) scale(0.100000,-0.100000)"
fill="#000000" stroke="none">
<path d="M4850 9523 c0 -7 -5 -13 -11 -13 -6 0 -23 -9 -39 -20 -15 -11 -30
-17 -34 -13 -3 3 -6 1 -6 -5 0 -7 -9 -12 -21 -12 -12 0 -17 -4 -14 -11 4 -6 1
-9 -7 -7 -8 2 -26 -8 -40 -22 -46 -43 -79 -70 -89 -70 -9 0 -37 -21 -71 -52
-10 -10 -20 -18 -23 -18 -18 -1 -35 -14 -35 -27 0 -8 -4 -12 -9 -9 -5 3 -23
-8 -40 -24 -17 -17 -31 -28 -31 -25 0 3 -6 0 -14 -7 -8 -7 -12 -16 -9 -20 2
-5 -1 -8 -6 -8 -6 0 -65 -54 -131 -120 -66 -66 -125 -120 -131 -120 -5 0 -8
-4 -5 -8 6 -10 -30 -43 -38 -35 -3 4 -6 -1 -6 -10 0 -10 -4 -17 -10 -17 -5 0
-10 4 -10 10 0 5 -10 19 -22 32 -13 13 -29 35 -37 51 -8 15 -18 27 -23 27 -4
0 -8 5 -8 11 0 7 -11 22 -26 35 -14 13 -22 24 -18 24 4 0 -2 8 -12 18 -11 9
-36 40 -55 67 -18 28 -37 52 -41 53 -5 2 -8 10 -8 17 0 8 -9 20 -20 28 -11 8
-17 17 -13 20 3 4 -1 7 -10 7 -10 0 -17 4 -17 8 0 5 -8 18 -17 30 -38 45 -53
66 -53 74 0 4 -7 8 -16 8 -10 0 -14 5 -10 16 3 9 2 12 -5 9 -5 -4 -15 6 -21
23 -6 16 -20 35 -31 41 -10 7 -17 8 -13 3 3 -5 -6 -7 -21 -4 -20 4 -24 2 -18
-9 7 -11 5 -11 -10 1 -10 8 -16 11 -13 5 6 -12 -67 -87 -76 -78 -3 4 -6 -1 -6
-11 0 -9 -3 -16 -7 -14 -5 2 -20 -9 -35 -24 -15 -15 -24 -28 -20 -28 4 0 2 -4
-3 -8 -18 -12 -46 -62 -35 -62 5 0 10 -9 10 -20 0 -11 6 -20 13 -20 8 0 7 -4
-3 -10 -13 -8 -12 -10 4 -10 12 0 16 -5 12 -16 -3 -8 -2 -13 3 -10 13 8 34
-21 25 -35 -4 -7 -3 -9 3 -6 6 4 13 0 16 -7 3 -8 1 -17 -6 -20 -7 -2 -3 -5 8
-5 14 -1 31 -18 50 -51 17 -27 33 -50 38 -50 4 0 7 -6 7 -13 0 -7 9 -23 19
-34 11 -12 17 -24 14 -27 -4 -3 -1 -6 5 -6 7 0 12 -6 12 -13 0 -7 11 -21 25
-31 13 -10 22 -22 19 -27 -3 -5 0 -9 5 -9 6 0 11 -7 11 -15 0 -8 5 -15 10 -15
6 0 10 -5 10 -11 0 -6 13 -29 29 -52 16 -23 45 -68 66 -100 20 -31 45 -63 56
-70 15 -11 16 -17 6 -34 -34 -57 -103 -191 -111 -213 -5 -14 -16 -33 -24 -43
-9 -10 -17 -30 -18 -45 0 -14 -6 -28 -13 -30 -9 -3 -9 -7 0 -18 10 -12 9 -13
-5 -8 -12 4 -16 0 -16 -15 0 -12 -5 -21 -11 -21 -5 0 -8 -3 -5 -8 2 -4 -3 -23
-12 -42 -17 -37 -19 -45 -21 -73 0 -10 -5 -16 -10 -13 -4 3 -7 -6 -5 -19 1
-14 -2 -25 -7 -25 -5 0 -8 -3 -7 -7 4 -13 -26 -103 -34 -103 -4 0 -10 5 -13
10 -3 6 -1 10 4 10 12 0 -6 39 -24 52 -7 5 -7 8 0 8 6 0 1 7 -9 15 -11 8 -16
15 -11 15 4 0 -5 12 -21 26 -16 15 -23 23 -17 20 9 -5 11 -2 7 8 -3 9 -10 14
-14 11 -11 -7 -22 24 -13 38 4 7 -2 5 -12 -3 -11 -9 -16 -10 -11 -2 4 7 1 15
-8 18 -9 3 -16 12 -16 20 0 8 -6 14 -12 14 -10 0 -9 3 1 9 11 7 9 10 -9 16
-18 6 -20 9 -9 16 12 7 11 9 -1 10 -8 1 -18 1 -22 0 -5 0 -8 8 -8 19 0 11 -4
20 -10 20 -5 0 -10 7 -10 15 0 8 -4 15 -10 15 -5 0 -10 7 -10 15 0 8 -4 15
-10 15 -5 0 -10 5 -10 10 0 6 -9 20 -20 32 -11 12 -20 28 -20 35 0 7 -4 13
-10 13 -5 0 -10 6 -10 14 0 8 -7 17 -16 20 -8 3 -12 10 -9 16 3 5 1 10 -4 10
-6 0 -11 7 -11 17 0 9 -3 14 -6 10 -8 -7 -38 21 -40 37 0 6 -2 17 -2 24 -1 6
-7 12 -13 12 -8 0 -7 -6 2 -17 13 -16 12 -17 -4 -4 -13 10 -15 17 -6 27 6 8 8
15 3 15 -5 1 -13 2 -19 4 -5 1 -14 3 -20 4 -5 1 -1 6 10 11 19 8 19 9 -2 9
-13 1 -23 6 -23 12 0 5 6 7 13 4 6 -4 4 0 -5 8 -10 8 -14 18 -10 23 4 4 0 3
-9 -3 -13 -10 -15 -8 -13 16 1 24 -2 28 -17 24 -13 -4 -19 0 -19 11 0 10 -5
14 -10 11 -6 -4 -10 -3 -9 2 4 21 -2 34 -13 27 -8 -5 -9 -2 -5 9 4 10 2 16 -6
14 -7 -1 -11 6 -10 16 0 12 -4 16 -12 13 -10 -3 -12 0 -8 11 4 11 3 14 -6 9
-8 -5 -14 -1 -18 13 -3 11 -9 18 -14 15 -5 -3 -9 0 -9 5 0 6 -11 10 -25 9 -13
-1 -22 -4 -20 -7 3 -2 -4 -11 -15 -18 -11 -8 -17 -19 -14 -25 4 -6 3 -8 -2 -5
-13 8 -39 -9 -39 -25 0 -7 -8 -12 -18 -12 -9 1 -17 -4 -17 -12 0 -7 -12 -17
-26 -20 -17 -4 -22 -9 -14 -14 9 -5 9 -9 1 -14 -6 -4 -16 -4 -22 0 -7 4 -7 -1
1 -16 7 -13 8 -20 2 -16 -6 4 -10 -2 -9 -13 1 -15 4 -17 14 -9 11 8 12 7 7 -7
-6 -14 -4 -16 7 -10 12 8 12 6 0 -8 -8 -10 -11 -20 -7 -24 3 -3 6 -1 6 5 0 7
8 12 17 12 13 0 14 -3 5 -12 -8 -8 -6 -16 10 -29 11 -10 26 -16 32 -12 6 4 4
-2 -4 -12 -8 -10 -10 -16 -5 -14 6 3 18 -2 28 -13 9 -10 14 -18 11 -18 -3 0 8
-13 25 -29 17 -16 31 -34 31 -40 0 -6 6 -11 13 -11 8 0 7 -4 -3 -10 -12 -8
-10 -10 8 -10 13 0 21 -4 17 -9 -3 -6 4 -19 16 -30 12 -11 18 -24 14 -30 -3
-6 1 -11 9 -11 9 0 16 -7 16 -15 0 -7 8 -19 18 -24 9 -6 13 -11 7 -11 -5 0 1
-10 15 -23 14 -12 19 -18 10 -13 -8 4 2 -7 23 -26 20 -20 37 -40 37 -47 0 -6
5 -11 11 -11 5 0 7 -5 4 -10 -3 -6 1 -13 9 -16 9 -3 16 -12 16 -19 0 -6 9 -20
20 -30 11 -10 20 -24 20 -30 0 -7 7 -15 15 -19 9 -3 12 -12 8 -22 -4 -12 -3
-15 5 -10 7 4 17 -3 24 -18 6 -14 15 -26 20 -26 4 0 8 -6 8 -14 0 -7 7 -19 15
-26 8 -7 12 -17 8 -24 -3 -6 -3 -8 1 -4 13 11 35 -15 25 -29 -7 -7 -6 -14 2
-19 8 -4 9 -3 5 4 -4 7 -2 12 3 12 6 0 11 -6 11 -14 0 -8 7 -22 16 -30 12 -12
12 -16 2 -16 -7 -1 -2 -7 12 -15 14 -8 21 -14 16 -15 -5 0 1 -9 13 -19 16 -14
18 -21 9 -24 -7 -3 -2 -6 12 -6 20 -1 22 -3 10 -11 -14 -9 -7 -14 13 -11 5 1
6 -3 2 -9 -3 -5 -2 -10 3 -10 6 0 13 -7 16 -16 6 -15 4 -15 -11 -3 -16 13 -17
12 -4 -4 8 -10 21 -15 29 -12 13 5 13 3 1 -12 -8 -9 -9 -14 -2 -10 11 7 30
-28 25 -46 -1 -5 2 -6 7 -3 5 4 8 15 6 26 -2 12 0 18 6 15 5 -4 7 -10 4 -15
-2 -4 5 -20 17 -36 24 -29 27 -49 17 -101 -4 -20 -2 -34 5 -37 7 -3 6 -5 -2
-5 -8 -1 -10 -6 -5 -13 11 -19 13 -38 3 -38 -5 0 -6 -10 -4 -22 12 -48 12 -93
1 -100 -8 -5 -8 -8 -1 -8 9 0 15 -53 17 -147 0 -18 3 -33 6 -33 4 0 7 -22 7
-50 1 -49 0 -50 -28 -45 -22 4 -28 2 -22 -7 6 -10 4 -10 -8 0 -11 9 -18 10
-23 2 -3 -6 -11 -7 -17 -4 -6 4 -25 7 -41 6 -17 0 -39 4 -50 10 -11 5 -17 6
-14 1 7 -11 -154 -11 -171 0 -8 6 -12 4 -10 -5 2 -7 -4 -11 -12 -9 -8 2 -41 3
-72 3 -32 -1 -60 3 -63 9 -4 5 -12 6 -18 2 -15 -9 -247 -11 -247 -1 0 7 -58 3
-82 -7 -11 -4 -18 -3 -18 4 0 6 -5 11 -11 11 -5 0 -7 -5 -3 -11 4 -8 0 -8 -15
0 -11 7 -21 8 -21 4 0 -4 -4 -2 -9 5 -7 11 -9 10 -14 -3 -5 -10 -3 -14 5 -9 7
5 8 3 3 -5 -5 -9 -11 -9 -18 -2 -7 7 -15 4 -26 -7 -9 -10 -13 -13 -8 -8 4 6 7
15 7 21 -1 12 -23 -25 -26 -43 -1 -6 2 -10 7 -6 5 3 9 1 9 -5 0 -5 -4 -12 -8
-15 -10 -6 -10 -46 1 -63 4 -6 1 -14 -5 -16 -10 -4 -9 -6 1 -6 11 -1 11 -4 1
-16 -10 -12 -10 -15 1 -15 10 0 10 -3 1 -12 -8 -8 -8 -17 -1 -31 7 -12 7 -17
1 -13 -6 3 -9 -2 -7 -11 2 -10 4 -18 6 -18 1 0 2 -12 3 -27 1 -16 -2 -28 -6
-28 -5 0 -4 -9 2 -19 12 -24 13 -34 1 -27 -5 4 -4 -5 2 -18 7 -14 17 -22 26
-18 8 3 12 1 8 -4 -3 -6 23 -10 69 -11 43 0 80 -6 89 -13 12 -10 16 -9 21 4 3
9 10 13 16 10 14 -9 88 -12 83 -3 -3 4 2 10 11 13 8 3 13 2 10 -3 -9 -14 22
-21 33 -7 14 16 50 14 62 -5 7 -11 9 -10 9 6 0 17 2 17 10 5 8 -12 10 -12 10
-1 0 11 3 11 16 0 13 -10 17 -10 24 0 6 11 9 11 13 0 4 -12 7 -11 16 1 8 11
11 11 11 2 0 -9 5 -10 19 -2 12 6 22 6 25 1 4 -5 14 -8 24 -6 9 1 24 -3 32 -9
13 -10 13 -9 1 7 -15 19 -9 22 19 7 13 -7 21 -7 25 0 3 5 11 10 16 10 6 0 8
-4 5 -8 -3 -5 1 -9 9 -9 8 0 12 4 9 9 -3 4 0 8 5 8 6 0 11 -5 11 -12 0 -6 7
-3 15 8 10 13 13 14 10 3 -4 -10 0 -16 9 -16 8 0 12 5 9 11 -4 6 0 5 9 -2 13
-10 17 -10 22 0 5 11 7 11 12 0 5 -10 9 -10 22 0 13 11 14 11 7 -2 -8 -13 -7
-13 8 -1 13 10 20 11 31 2 10 -8 16 -9 21 -1 4 7 12 7 25 0 13 -7 21 -7 25 0
5 8 11 8 20 0 9 -8 15 -8 20 0 3 5 17 8 31 6 14 -3 24 0 24 7 0 8 3 8 9 -1 4
-8 11 -13 15 -13 20 3 26 0 21 -9 -3 -5 2 -10 12 -10 15 0 16 -2 3 -10 -8 -5
-10 -10 -5 -10 6 0 16 -9 23 -21 11 -17 11 -20 0 -14 -7 3 -4 -1 7 -10 11 -9
19 -19 18 -23 -5 -12 8 -42 18 -42 5 0 9 -8 9 -19 0 -10 7 -24 15 -31 9 -7 13
-15 11 -18 -9 -8 15 -43 25 -37 5 4 9 3 8 -2 -3 -19 2 -34 10 -29 4 3 7 -6 5
-19 -1 -14 3 -28 8 -32 7 -3 8 -1 4 5 -4 7 -5 12 -2 12 3 0 10 -10 17 -21 9
-17 8 -20 -3 -14 -7 4 1 -4 17 -19 17 -14 35 -26 40 -26 6 0 3 -5 -5 -11 -11
-8 -12 -12 -2 -16 6 -2 12 -9 12 -14 0 -6 -5 -7 -12 -3 -7 4 -8 3 -4 -5 6 -9
11 -9 22 0 12 10 13 9 8 -6 -5 -12 -4 -16 4 -11 6 3 14 1 18 -5 4 -8 3 -9 -4
-5 -7 4 -12 0 -12 -10 0 -10 3 -15 6 -11 4 3 13 0 20 -8 17 -17 18 -29 2 -19
-7 4 -8 3 -4 -5 6 -9 11 -9 22 0 12 10 13 9 8 -5 -3 -9 -1 -16 6 -16 6 0 8 -5
4 -12 -5 -9 -2 -8 9 1 15 12 17 12 11 -4 -5 -12 -4 -16 3 -12 7 5 9 -1 6 -15
-4 -19 -3 -20 6 -8 7 10 11 11 11 3 0 -20 28 -15 50 7 11 11 20 18 20 15 0 -2
12 7 26 20 15 14 31 22 37 18 5 -3 7 -1 4 4 -8 13 51 83 70 83 8 0 16 7 19 15
4 8 13 15 21 15 8 0 11 5 7 11 -3 6 0 16 7 21 11 7 11 11 2 15 -7 2 -13 10
-13 18 0 7 -7 18 -15 25 -8 7 -12 16 -9 21 3 5 0 9 -5 9 -6 0 -11 5 -11 11 0
6 -9 23 -20 39 -11 15 -17 30 -13 34 3 3 1 6 -5 6 -7 0 -19 15 -27 33 -23 50
-67 122 -77 125 -4 2 -5 8 -2 14 4 5 -3 23 -15 39 -11 15 -21 33 -21 39 0 5
-5 10 -11 10 -5 0 -8 4 -5 9 3 4 -3 19 -14 31 -11 12 -17 27 -14 31 3 5 0 9
-5 9 -6 0 -10 3 -9 8 1 4 -4 21 -12 37 -7 17 -21 49 -31 72 -11 24 -19 48 -19
55 -1 7 -7 31 -16 53 -14 40 -44 169 -49 215 -2 14 -6 41 -10 60 -4 19 -8 45
-8 58 -1 12 -4 22 -7 22 -3 0 -7 18 -7 40 0 27 3 38 11 33 7 -4 6 -1 -2 9 -6
8 -12 26 -12 39 0 52 -4 74 -14 81 -7 5 -5 8 4 8 13 0 13 1 0 10 -13 8 -12 10
4 10 20 0 20 0 0 15 -19 14 -19 14 1 15 15 1 17 3 5 8 -8 4 -16 15 -16 24 -1
10 3 15 8 12 6 -4 7 2 3 16 -6 17 -4 21 6 15 8 -5 6 1 -4 12 -16 18 -16 22 -3
35 9 9 11 20 6 28 -5 8 -7 17 -5 20 2 4 6 17 9 31 2 13 7 33 11 44 6 16 5 17
-4 5 -7 -9 -11 -10 -11 -3 0 6 5 15 11 19 8 4 7 9 -2 14 -9 6 -10 12 -2 22 7
7 14 31 17 53 3 22 8 51 10 65 3 14 8 39 12 55 7 35 45 129 103 256 12 25 21
51 21 57 0 7 5 12 11 12 6 0 8 7 5 16 -3 8 -2 12 3 9 5 -3 12 4 16 14 8 25 93
154 109 163 6 4 7 8 3 8 -4 0 3 11 17 24 15 13 26 28 26 35 0 6 3 11 8 11 4 0
18 18 32 40 14 22 29 40 34 40 5 0 6 3 3 7 -4 3 2 13 13 20 11 8 18 19 15 24
-4 5 1 9 9 9 8 0 23 13 32 29 10 17 22 27 28 24 6 -3 8 -3 4 2 -9 10 30 67 41
60 5 -2 13 7 19 20 7 14 16 25 22 25 5 0 10 7 10 15 0 8 7 15 15 15 8 0 15 5
15 10 0 6 12 22 26 35 15 14 24 25 20 25 -5 0 13 20 38 45 25 24 46 49 46 55
0 5 4 9 8 8 4 -2 22 12 39 30 18 17 37 32 43 32 6 0 8 4 5 10 -3 5 6 12 20 16
14 3 24 9 21 11 -6 6 41 55 48 51 3 -2 17 13 31 32 25 34 85 93 85 84 0 -3 13
8 29 23 44 42 81 72 81 65 0 -4 11 5 24 20 15 19 22 36 19 52 -8 41 -63 88
-63 54 0 -9 -4 -8 -10 2 -6 10 -10 11 -10 3z"/>
<path d="M4941 7881 c-1 -9 -9 -12 -26 -9 -13 3 -22 2 -20 -2 5 -8 -51 -24
-73 -21 -7 1 -15 -5 -18 -13 -3 -8 -14 -13 -25 -11 -11 2 -22 -2 -26 -10 -3
-8 -10 -12 -17 -8 -6 4 -5 0 2 -9 11 -14 10 -16 -9 -11 -17 5 -20 3 -14 -7 6
-10 4 -12 -11 -6 -10 4 -16 4 -12 1 3 -4 -10 -22 -28 -41 -19 -19 -32 -38 -29
-43 3 -6 -5 -17 -17 -25 -12 -9 -18 -16 -13 -16 6 0 2 -5 -8 -11 -15 -9 -16
-13 -5 -27 7 -9 8 -13 2 -9 -15 9 -23 -12 -20 -46 2 -14 -2 -25 -7 -24 -6 1
-11 -2 -12 -8 0 -5 -4 -16 -8 -22 -6 -9 -3 -11 10 -6 17 6 17 5 0 -14 -9 -11
-14 -23 -10 -26 11 -11 10 -57 -2 -58 -5 0 -1 -4 10 -9 11 -5 14 -9 8 -9 -7
-1 -13 -10 -13 -22 0 -13 4 -18 13 -13 8 5 8 2 -2 -9 -11 -14 -11 -17 0 -17
11 0 11 -2 -1 -10 -8 -5 -10 -10 -5 -10 6 0 12 -14 13 -32 2 -18 7 -35 12 -38
4 -3 10 -12 12 -19 2 -8 17 -30 35 -49 18 -20 29 -40 26 -46 -3 -6 -3 -8 1 -4
4 3 23 -8 41 -25 50 -46 65 -58 65 -52 0 3 17 -3 39 -14 21 -11 41 -17 45 -14
3 4 6 2 6 -3 0 -5 9 -10 20 -11 13 -1 18 2 13 10 -4 7 0 6 10 -2 14 -11 17
-11 17 0 0 9 3 10 8 4 6 -9 27 -11 42 -5 19 7 39 7 34 -1 -3 -5 0 -9 5 -9 6 0
11 4 11 10 0 5 7 7 15 3 9 -3 23 3 31 13 15 18 15 18 10 -1 -6 -20 -6 -20 9
-1 8 11 15 16 15 12 0 -5 11 -1 25 8 14 9 25 14 25 10 0 -3 8 2 18 13 9 10 13
12 8 3 -5 -8 13 8 40 36 27 29 54 53 61 55 21 7 79 132 78 172 0 20 5 37 10
37 6 0 3 5 -5 10 -8 5 -10 10 -3 10 6 0 9 9 5 22 -3 12 -1 19 5 15 12 -7 10
29 -2 40 -4 5 -5 3 -1 -4 3 -6 2 -14 -3 -18 -14 -8 -5 33 11 54 12 15 11 15
-6 1 -18 -14 -19 -13 -13 3 4 10 2 17 -6 17 -8 0 -6 4 3 10 10 6 11 10 3 10
-7 0 -13 5 -13 11 0 5 4 8 8 5 4 -2 8 4 8 14 0 11 -2 17 -4 15 -2 -2 -10 2
-17 8 -10 9 -10 15 -1 26 8 12 8 13 -1 7 -12 -6 -15 0 -12 20 0 4 -3 10 -8 13
-4 3 -14 17 -21 30 -11 19 -11 22 0 16 7 -3 4 1 -6 9 -11 9 -17 18 -14 22 13
12 -90 97 -109 90 -8 -3 -11 -1 -8 4 3 6 3 10 -2 11 -29 2 -48 9 -51 17 -2 6
-12 8 -22 5 -13 -3 -20 0 -20 8 0 11 -2 11 -10 -1 -8 -13 -10 -13 -10 2 0 9
-4 20 -10 23 -6 3 -7 -1 -4 -10 7 -17 -16 -17 -28 0 -5 6 -8 4 -8 -5 0 -13 -1
-13 -10 0 -9 13 -10 13 -11 0 0 -10 -3 -8 -9 5 -5 11 -9 14 -9 6z m-251 -141
c0 -5 -5 -10 -11 -10 -5 0 -7 5 -4 10 3 6 8 10 11 10 2 0 4 -4 4 -10z m220
-80 c0 -3 16 -7 36 -8 37 -3 109 -44 97 -55 -3 -4 -1 -7 6 -7 6 0 16 -11 21
-25 5 -14 14 -25 19 -25 6 0 7 -7 4 -17 -5 -12 -3 -14 8 -8 11 7 12 6 3 -6
-11 -15 -11 -25 0 -51 4 -10 6 -23 3 -30 -2 -7 0 -21 5 -32 7 -13 7 -16 -1
-12 -6 4 -11 2 -11 -3 0 -6 5 -11 11 -11 5 0 7 -5 4 -10 -4 -6 -12 -7 -18 -3
-8 4 -7 1 1 -9 8 -10 9 -18 3 -22 -6 -4 -7 -14 -4 -23 4 -10 2 -14 -4 -10 -5
3 -9 -3 -8 -16 2 -26 -15 -58 -28 -50 -4 3 -7 -1 -5 -9 2 -7 -1 -15 -7 -16 -5
-2 -15 -13 -22 -25 -7 -12 -12 -18 -13 -14 0 4 -6 2 -14 -5 -8 -7 -12 -16 -10
-19 2 -3 -10 -5 -26 -4 -17 1 -30 -1 -30 -5 0 -4 -12 -5 -27 -3 -16 2 -34 5
-40 5 -7 1 -13 6 -13 11 0 5 -6 4 -14 -2 -11 -9 -15 -8 -20 4 -4 11 -2 14 6 9
7 -4 8 -3 4 4 -4 6 -14 8 -23 5 -11 -4 -14 -3 -9 5 4 7 2 10 -6 7 -12 -5 -26
14 -65 84 -7 13 -14 52 -16 85 -1 34 -6 64 -12 68 -6 5 -5 8 3 8 7 0 10 5 7
10 -3 6 -3 16 2 23 4 6 8 22 9 34 0 12 9 34 18 49 12 18 14 24 5 19 -8 -3 -5
1 6 10 11 9 19 21 17 26 -1 6 2 8 7 5 5 -4 12 -2 16 4 4 6 11 8 16 5 5 -4 9 1
9 11 0 12 6 15 25 12 22 -5 23 -3 13 10 -10 13 -10 14 0 8 7 -4 12 -2 12 6 0
8 3 9 8 3 4 -5 13 -11 21 -13 11 -2 12 0 3 11 -9 11 -8 14 3 14 8 0 15 -3 15
-7z m415 -89 c3 -5 2 -12 -3 -15 -5 -3 -9 1 -9 9 0 17 3 19 12 6z m-210 -80
c3 -5 2 -12 -3 -15 -5 -3 -9 1 -9 9 0 17 3 19 12 6z"/>
<path d="M3685 7560 c-3 -5 -1 -10 4 -10 6 0 11 5 11 10 0 6 -2 10 -4 10 -3 0
-8 -4 -11 -10z"/>
<path d="M3354 7488 c-4 -6 -3 -9 2 -6 12 8 35 -17 26 -28 -4 -4 -1 -4 6 0 11
6 10 12 -4 27 -20 22 -21 22 -30 7z"/>
<path d="M5239 7123 c-13 -16 -12 -17 4 -4 9 7 17 15 17 17 0 8 -8 3 -21 -13z"/>
<path d="M6036 6125 c-14 -8 -26 -11 -26 -7 0 4 -4 2 -8 -4 -10 -15 -122 -78
-122 -68 0 4 -8 -3 -19 -14 -20 -24 -36 -29 -26 -9 4 6 -3 1 -14 -13 -11 -14
-21 -21 -21 -16 0 6 -7 1 -16 -10 -14 -17 -15 -17 -10 -1 3 11 2 16 -4 12 -6
-3 -10 -12 -10 -20 0 -8 -5 -17 -12 -21 -7 -5 -8 -3 -3 6 6 9 4 11 -4 6 -7 -5
-10 -10 -7 -13 3 -3 1 -14 -4 -24 -8 -14 -4 -24 17 -45 16 -14 21 -23 13 -20
-10 5 -9 2 2 -7 10 -8 14 -18 10 -22 -4 -5 1 -5 10 -2 12 4 15 2 11 -9 -3 -7
0 -14 6 -14 6 0 11 -7 11 -15 0 -7 7 -18 16 -23 9 -5 15 -12 14 -16 -1 -4 14
-25 33 -47 20 -22 39 -48 42 -59 4 -11 13 -20 21 -20 8 0 12 -4 9 -10 -3 -5 1
-10 10 -10 11 0 15 -5 11 -16 -3 -9 -2 -12 4 -9 6 4 15 -7 21 -24 6 -18 16
-28 22 -24 6 4 8 0 4 -10 -3 -9 1 -18 10 -21 9 -4 13 -13 9 -22 -3 -8 -2 -12
4 -9 6 3 10 2 10 -3 0 -4 8 -17 18 -28 9 -10 28 -39 41 -64 14 -25 27 -47 30
-50 3 -3 13 -14 21 -24 13 -18 13 -19 0 -12 -8 4 -5 -1 7 -12 12 -11 19 -22
16 -26 -4 -3 -1 -6 6 -6 7 0 10 -4 7 -9 -4 -5 -2 -11 3 -13 5 -1 11 -14 13
-28 1 -14 9 -31 16 -38 7 -8 10 -18 7 -23 -4 -5 -1 -9 5 -9 7 0 9 -7 6 -15 -3
-9 1 -18 8 -21 8 -3 17 -20 21 -37 4 -18 9 -34 9 -37 8 -22 20 -80 22 -105 1
-16 3 -32 4 -35 1 -3 2 -8 1 -12 0 -5 5 -8 12 -8 8 0 7 -4 -3 -10 -12 -8 -12
-10 -1 -10 11 0 11 -3 0 -17 -12 -14 -12 -15 0 -9 10 7 12 3 6 -14 -5 -15 -4
-20 4 -16 6 4 9 2 6 -6 -8 -22 -11 -177 -3 -172 13 8 9 -11 -4 -24 -7 -7 -8
-12 -2 -12 10 0 11 -56 1 -66 -3 -3 -3 -13 0 -22 5 -11 3 -13 -8 -7 -11 7 -12
6 -2 -7 7 -8 10 -17 8 -20 -11 -10 -13 -78 -3 -78 6 0 5 -6 -2 -15 -9 -11 -9
-15 -1 -15 7 0 9 -5 6 -11 -9 -14 -13 -69 -5 -69 3 0 6 -9 6 -19 0 -11 -5 -17
-10 -14 -5 4 -7 -1 -3 -10 3 -9 2 -19 -4 -23 -6 -4 -5 -12 3 -22 7 -9 8 -13 2
-9 -7 4 -14 -3 -17 -18 -2 -14 0 -28 5 -31 5 -3 4 -11 -2 -19 -6 -7 -10 -17
-9 -21 4 -23 -2 -55 -9 -50 -4 2 -9 -7 -10 -22 -1 -14 -6 -30 -11 -35 -5 -5
-7 -16 -4 -23 3 -8 0 -14 -7 -14 -6 0 -8 -4 -5 -10 3 -5 2 -10 -4 -10 -5 0 -8
-11 -6 -25 1 -17 -3 -25 -14 -25 -13 0 -13 -2 -2 -9 9 -6 10 -11 2 -15 -6 -4
-9 -12 -6 -17 4 -5 1 -9 -6 -9 -7 0 -9 -3 -6 -7 4 -3 2 -12 -4 -19 -6 -8 -9
-20 -6 -28 4 -10 1 -13 -7 -10 -7 3 -16 -2 -20 -11 -3 -9 -2 -13 4 -10 6 3 10
1 10 -4 0 -6 -7 -11 -16 -11 -8 0 -13 -4 -10 -9 7 -11 -16 -71 -27 -71 -4 0
-5 5 -1 12 4 7 3 8 -5 4 -9 -6 -9 -11 0 -22 6 -8 7 -14 3 -14 -5 0 -20 -24
-34 -52 -13 -29 -29 -58 -35 -65 -5 -6 -26 -30 -45 -54 -19 -23 -47 -56 -62
-73 -16 -17 -28 -34 -28 -39 0 -4 -5 -5 -12 -1 -8 5 -9 2 -5 -10 4 -10 3 -15
-3 -11 -6 3 -13 -2 -17 -12 -4 -10 -17 -26 -30 -36 -13 -10 -21 -23 -18 -27 3
-5 -7 -16 -22 -24 -15 -8 -25 -15 -21 -16 4 0 -10 -17 -30 -39 -20 -21 -40
-36 -44 -34 -7 4 -12 -12 -9 -30 0 -4 -3 -6 -8 -5 -11 4 -181 -174 -175 -183
2 -4 -5 -10 -16 -14 -11 -4 -18 -11 -15 -16 4 -5 -1 -9 -9 -9 -9 0 -16 -7 -16
-15 0 -8 -5 -15 -11 -15 -5 0 -7 -5 -3 -12 4 -7 3 -8 -4 -4 -6 3 -16 -3 -22
-14 -6 -11 -16 -17 -22 -14 -6 4 -8 3 -5 -3 8 -13 -18 -37 -31 -29 -6 3 -9 -2
-8 -12 1 -12 -5 -16 -18 -14 -18 3 -18 2 -5 -14 8 -11 9 -15 2 -10 -13 7 -41
-3 -42 -16 -1 -13 -39 -47 -45 -40 -3 3 -6 -2 -6 -12 0 -9 -4 -14 -10 -11 -5
3 -10 -3 -10 -14 0 -12 -4 -21 -8 -21 -5 0 -9 -7 -9 -15 0 -8 4 -15 9 -15 4 0
7 -3 6 -7 -3 -16 15 -43 28 -43 8 0 14 -4 14 -9 0 -5 9 -11 21 -14 14 -4 18
-10 13 -19 -4 -7 4 -3 18 10 13 12 28 19 32 15 4 -5 6 -1 4 7 -2 8 3 15 10 16
26 3 27 5 12 14 -13 8 -13 10 2 10 10 0 22 9 28 20 6 11 15 18 20 15 6 -3 7 1
4 9 -3 9 -2 16 2 16 5 0 27 16 48 35 21 19 43 32 48 29 5 -3 7 0 6 8 -2 7 3
12 9 11 7 -2 12 0 12 5 -3 19 2 33 10 28 5 -3 34 23 66 59 31 36 61 63 66 59
5 -3 9 -1 9 5 0 17 256 266 274 266 6 0 11 5 12 10 2 28 26 65 41 65 15 0 16
2 3 10 -11 7 -11 10 -2 10 7 0 10 4 7 10 -4 6 1 7 11 3 12 -4 15 -3 10 5 -4 7
-2 13 3 13 6 1 16 2 21 3 11 1 12 18 3 26 -4 3 -3 -1 1 -7 5 -9 2 -11 -8 -7
-13 5 -12 9 7 24 12 10 27 18 32 19 6 1 16 13 23 27 7 13 17 22 22 19 6 -4 7
1 3 11 -4 12 -3 15 5 10 7 -4 12 -3 12 3 0 5 -6 12 -12 14 -10 4 -10 6 -1 6 6
1 18 -8 26 -19 8 -11 17 -17 20 -13 4 3 7 1 7 -6 0 -7 5 -9 13 -5 9 5 9 4 0
-6 -10 -11 -8 -17 9 -32 12 -10 18 -18 14 -18 -4 0 3 -10 14 -22 12 -13 28
-35 36 -50 8 -16 19 -28 25 -28 6 0 8 -4 4 -9 -7 -12 24 -43 36 -36 5 4 6 -1
3 -8 -3 -8 11 -37 30 -65 20 -27 36 -54 36 -61 0 -6 4 -11 10 -11 5 0 24 -29
41 -65 18 -36 36 -65 41 -65 4 0 16 -17 27 -37 11 -21 29 -45 40 -53 12 -8 21
-20 21 -28 0 -7 5 -10 10 -7 6 3 10 -1 10 -9 0 -9 4 -16 9 -16 5 0 17 -7 25
-16 25 -25 57 -26 78 -2 10 11 18 17 18 13 0 -4 11 4 25 19 14 15 25 24 25 20
0 -3 7 -1 15 6 9 7 14 19 11 27 -3 8 -2 12 2 9 4 -2 28 9 52 26 25 17 37 28
27 25 -11 -4 -16 -3 -12 3 3 6 13 10 21 10 8 0 14 6 14 14 0 8 13 20 29 27 25
11 28 16 21 40 -5 15 -6 30 -2 33 3 3 0 6 -7 6 -7 0 -10 4 -7 9 3 5 -1 11 -9
15 -8 3 -15 12 -15 19 0 8 -9 22 -20 32 -11 10 -20 22 -20 26 0 4 -11 20 -25
35 -14 15 -23 29 -20 32 2 3 -3 12 -13 21 -10 9 -31 38 -47 66 -15 27 -38 59
-51 72 -12 12 -25 31 -29 42 -3 10 -21 39 -40 63 -19 23 -35 48 -35 53 0 6
-13 26 -30 45 -16 19 -29 43 -30 53 0 9 -4 17 -10 17 -5 0 -10 8 -10 18 0 9
-11 29 -25 44 -14 15 -25 32 -25 38 0 12 -50 83 -62 88 -5 2 -8 8 -8 14 0 5
-7 16 -15 24 -8 8 -12 22 -9 32 11 33 39 82 47 82 4 0 6 4 2 9 -3 5 -1 12 5
16 6 4 8 10 5 15 -3 4 7 22 21 39 14 17 23 31 19 31 -4 0 -2 7 5 15 7 8 9 15
6 15 -4 0 -2 9 4 21 6 11 13 29 16 40 2 10 7 29 10 42 6 21 8 35 18 97 3 14 5
48 5 75 1 43 3 47 13 30 6 -11 14 -22 18 -25 3 -3 17 -21 30 -40 13 -19 37
-48 52 -65 15 -16 28 -36 28 -42 0 -7 4 -13 9 -13 5 0 18 -15 30 -32 36 -57
45 -70 73 -101 15 -17 35 -46 43 -64 9 -18 20 -33 25 -33 5 0 12 -10 16 -22 6
-20 13 -31 42 -63 6 -7 12 -17 12 -22 0 -5 8 -16 18 -25 24 -22 52 -60 52 -71
0 -5 11 -18 25 -29 14 -11 25 -24 25 -29 0 -11 51 -82 63 -87 4 -2 7 -8 7 -13
0 -5 40 -60 90 -122 86 -107 140 -160 140 -137 0 6 5 8 10 5 9 -6 14 8 11 28
-1 5 3 5 9 2 10 -6 47 26 113 93 6 7 24 24 39 39 29 28 54 83 37 83 -6 0 -7 5
-4 10 3 6 1 10 -5 10 -7 0 -9 8 -5 21 5 14 4 19 -4 15 -6 -4 -18 8 -28 28 -9
20 -21 36 -25 36 -5 0 -6 5 -3 10 3 6 1 10 -4 10 -6 0 -11 6 -11 14 0 8 -3 16
-7 18 -19 8 -134 191 -129 204 3 9 1 12 -5 9 -6 -4 -13 2 -16 14 -3 12 -9 21
-13 21 -7 0 -18 28 -18 46 -1 3 -8 11 -18 18 -9 7 -14 18 -10 24 4 7 1 12 -8
12 -9 0 -16 5 -16 10 0 14 -61 109 -89 137 -11 12 -21 26 -21 31 0 5 -19 35
-42 65 -72 93 -82 108 -98 135 -8 15 -26 45 -40 67 -39 62 -48 78 -59 103 -6
12 -15 22 -21 22 -5 0 -10 5 -10 10 0 12 -78 120 -95 132 -5 4 -7 8 -2 8 6 0
-38 75 -53 90 -3 3 -6 12 -8 20 -2 8 -10 19 -18 23 -8 5 -12 12 -10 16 3 4 -7
14 -22 22 -15 8 -32 19 -38 25 -11 9 -40 144 -37 172 0 6 -4 12 -9 12 -6 0 -8
6 -5 13 3 7 -1 21 -9 32 -11 15 -11 21 -1 34 6 8 7 12 1 8 -6 -4 -16 13 -24
43 -8 28 -18 50 -23 50 -5 0 -6 7 -3 16 3 8 2 12 -3 9 -5 -3 -12 -1 -16 5 -3
5 0 10 7 10 8 1 6 6 -6 15 -10 7 -15 18 -12 23 3 6 -1 13 -10 16 -9 3 -14 13
-10 21 3 8 -4 21 -17 30 -12 8 -21 18 -19 20 6 13 1 35 -8 30 -6 -4 -9 -3 -8
2 1 4 -3 18 -10 29 -6 12 -8 24 -5 28 3 3 -1 6 -11 6 -9 0 -15 4 -12 9 3 5 -1
11 -9 15 -8 3 -15 13 -15 21 0 9 4 14 8 11 5 -3 9 2 9 10 0 10 -4 11 -11 4
-14 -14 -22 -13 -24 5 -1 8 -3 22 -4 30 -1 8 -5 12 -10 9 -7 -5 -13 18 -9 39
1 5 -3 6 -8 3 -5 -3 -14 8 -20 24 -5 17 -15 30 -20 30 -6 0 -11 7 -11 15 0 8
-5 15 -11 15 -5 0 -8 4 -5 9 3 5 -1 12 -10 15 -9 4 -14 13 -10 22 3 8 2 12 -4
9 -5 -3 -17 9 -26 27 -9 18 -22 36 -28 40 -6 4 -7 8 -2 8 4 0 -2 9 -15 20 -13
10 -20 19 -14 20 5 0 -1 7 -13 16 -12 8 -22 20 -22 25 0 5 -10 20 -21 32 -12
12 -18 15 -14 7 7 -12 6 -13 -6 -4 -26 20 -46 23 -73 9z m-289 -210 c0 -8 -4
-12 -9 -9 -5 3 -6 10 -3 15 9 13 12 11 12 -6z"/>
<path d="M3709 6087 c6 -8 7 -18 3 -22 -4 -5 -1 -5 6 -1 10 6 10 11 1 22 -6 8
-14 14 -16 14 -3 0 0 -6 6 -13z"/>
<path d="M4060 6005 c-11 -13 -10 -14 4 -9 9 3 16 10 16 15 0 13 -6 11 -20 -6z"/>
<path d="M5239 5313 c-12 -14 -12 -16 0 -8 10 5 12 4 7 -4 -6 -9 -11 -9 -22 0
-8 6 -17 9 -21 6 -3 -4 -15 -1 -27 5 -18 10 -19 9 -9 -4 10 -12 10 -15 -2 -15
-8 0 -15 5 -15 11 0 7 -3 7 -8 1 -10 -14 -55 -39 -47 -26 3 6 -1 11 -9 11 -9
0 -16 -5 -16 -12 0 -6 -3 -8 -7 -4 -5 4 1 14 11 22 11 8 16 14 10 14 -5 0 -18
-7 -28 -15 -24 -18 -40 -20 -30 -3 4 7 3 8 -5 4 -6 -4 -9 -11 -6 -16 6 -10
-16 -19 -33 -13 -6 3 -9 10 -6 15 4 7 2 8 -5 4 -9 -6 -9 -11 0 -22 10 -13 8
-13 -16 -4 -24 9 -26 9 -16 -4 9 -11 9 -16 0 -22 -8 -4 -9 -3 -5 4 4 7 2 12
-3 12 -6 0 -11 -4 -11 -10 0 -5 -5 -10 -11 -10 -5 0 -7 5 -3 12 4 7 3 8 -5 4
-6 -4 -9 -16 -6 -26 3 -10 1 -21 -4 -25 -6 -3 -8 0 -5 8 3 8 1 18 -5 22 -6 3
-11 1 -11 -5 0 -6 -10 -21 -21 -33 -16 -16 -20 -18 -16 -5 4 12 2 15 -8 11 -8
-3 -12 -10 -8 -16 4 -6 0 -8 -11 -4 -10 4 -15 3 -11 -4 11 -16 -16 -40 -39
-34 -12 3 -15 2 -8 -1 17 -8 5 -24 -18 -24 -14 0 -18 -5 -13 -17 4 -11 3 -14
-5 -9 -7 4 -14 -3 -18 -19 -7 -27 -19 -33 -28 -12 -2 6 -4 1 -3 -13 1 -15 -3
-24 -10 -23 -7 2 -10 -3 -7 -11 3 -8 0 -17 -5 -21 -6 -3 -9 -11 -6 -16 3 -5
-2 -6 -11 -2 -12 4 -15 3 -10 -5 4 -7 2 -12 -5 -12 -8 0 -8 -4 1 -15 11 -13
10 -14 -5 -9 -12 5 -16 4 -12 -3 4 -6 0 -14 -9 -17 -14 -5 -14 -9 -3 -23 8 -9
9 -14 3 -10 -13 8 -27 -19 -18 -34 3 -5 0 -9 -6 -9 -6 0 -8 -4 -5 -10 3 -5 1
-10 -4 -10 -6 0 -11 -10 -11 -22 -1 -57 -7 -109 -15 -115 -4 -5 -5 -2 0 6 6
10 4 12 -4 7 -9 -6 -9 -11 0 -22 9 -11 8 -14 -2 -14 -11 0 -11 -2 1 -10 14 -9
7 -14 -15 -11 -5 1 -1 -6 9 -14 11 -8 14 -15 7 -15 -7 0 -10 -4 -7 -8 2 -4 1
-14 -4 -22 -5 -9 -4 -20 3 -29 9 -12 9 -13 0 -7 -7 4 -13 3 -13 -3 0 -5 6 -12
13 -14 6 -3 7 -6 1 -6 -17 -1 -7 -64 12 -78 13 -10 14 -13 3 -13 -12 0 -12 -2
1 -10 13 -9 13 -10 0 -10 -12 0 -13 -2 -1 -9 11 -7 11 -9 0 -14 -10 -4 -8 -6
4 -6 10 -1 15 -5 12 -11 -3 -5 -2 -10 4 -10 5 0 8 -9 6 -20 -2 -11 1 -20 7
-20 5 0 7 -7 4 -16 -3 -9 -2 -12 5 -9 6 4 9 -1 7 -11 -2 -11 2 -18 8 -17 7 1
11 -5 10 -15 0 -10 6 -17 15 -16 9 1 16 -5 16 -12 0 -7 -3 -11 -7 -9 -4 2 -7
-2 -7 -10 0 -10 5 -11 18 -5 13 8 17 6 15 -8 -3 -19 14 -52 28 -52 4 0 3 7 -4
15 -17 20 -6 19 15 -1 13 -14 14 -19 3 -25 -11 -7 -11 -9 0 -9 8 0 10 -5 6
-12 -6 -10 -5 -10 8 0 12 10 18 9 28 -3 7 -9 10 -18 6 -22 -3 -3 -6 0 -6 7 0
7 -2 11 -5 8 -3 -3 -3 -13 1 -22 5 -13 9 -14 20 -5 11 9 14 8 14 -1 0 -8 3
-10 7 -7 3 4 15 -1 25 -10 17 -15 21 -15 30 -3 8 12 9 11 4 -4 -7 -20 11 -49
25 -40 5 3 6 -2 3 -10 -3 -9 -10 -16 -16 -16 -5 0 -6 -5 -2 -11 4 -7 9 -7 13
-2 3 5 15 13 26 17 16 6 18 5 8 -5 -7 -7 -13 -17 -13 -22 0 -5 5 -5 13 1 7 6
20 6 32 1 18 -9 18 -9 -2 -5 -13 2 -23 0 -23 -5 0 -5 14 -9 30 -9 17 0 30 5
30 13 0 8 4 7 10 -3 13 -21 12 -39 -1 -20 -9 12 -10 12 -5 -3 3 -10 6 -21 6
-23 0 -3 6 1 14 8 8 7 12 16 10 19 -2 3 3 6 10 6 7 0 13 -6 13 -13 0 -7 -4
-11 -9 -8 -4 3 -8 0 -8 -5 0 -6 7 -11 15 -11 8 0 15 -6 15 -12 0 -10 2 -10 9
0 4 8 12 14 16 14 4 0 12 -6 16 -14 6 -8 9 -9 9 -1 0 6 8 10 18 8 9 -2 24 -4
32 -4 13 -1 13 -2 0 -12 -12 -8 -10 -9 9 -4 18 6 22 4 15 -6 -6 -12 -5 -12 9
0 14 11 17 11 17 0 0 -10 3 -10 12 -1 17 17 28 15 28 -5 0 -15 2 -14 16 3 8
10 12 12 8 4 -7 -13 -5 -13 9 -2 9 8 21 11 27 7 5 -3 10 -1 10 4 0 6 5 11 11
11 5 0 7 -4 4 -10 -3 -5 -1 -10 4 -10 6 0 11 4 11 10 0 5 7 6 17 3 11 -4 14
-3 9 5 -4 7 -2 12 3 12 6 0 11 -6 11 -12 0 -9 4 -8 10 2 9 13 10 13 10 0 0
-10 3 -11 8 -4 4 6 15 10 25 8 10 -1 21 4 24 12 3 8 9 14 15 14 5 0 6 -5 2
-11 -3 -6 5 -3 20 6 14 9 23 22 20 27 -4 6 4 5 16 -2 15 -8 20 -8 16 -1 -4 6
-2 11 4 11 6 0 8 4 5 10 -3 6 1 7 9 4 10 -4 16 -1 16 7 0 11 3 11 10 -1 8 -13
10 -13 10 2 0 9 5 20 12 24 7 5 8 3 3 -7 -7 -11 -6 -12 7 -2 8 7 18 10 22 6 4
-4 4 0 1 8 -4 11 1 18 15 22 12 3 19 10 16 16 -4 5 -1 13 5 17 8 4 9 3 5 -4
-4 -7 -3 -12 3 -12 6 0 13 11 17 25 3 14 10 22 15 19 5 -3 9 0 9 6 0 6 4 8 10
5 6 -3 7 1 4 9 -4 12 0 16 16 16 15 0 20 5 17 14 -3 8 1 17 10 20 8 4 13 13 9
21 -3 8 0 14 7 12 7 -1 12 6 12 15 0 9 4 20 9 25 5 5 6 2 1 -6 -5 -9 -4 -12 3
-7 7 4 12 14 12 22 0 8 6 14 13 14 8 0 7 4 -3 10 -11 7 -11 10 -2 10 7 0 10 5
7 10 -3 6 -1 10 5 10 6 0 8 5 5 10 -3 6 -1 10 4 10 6 0 11 9 11 19 0 11 4 22
10 26 5 3 7 12 3 20 -3 8 0 15 7 15 6 0 9 4 5 9 -3 5 -1 13 5 16 8 5 7 12 -2
23 -10 11 -10 16 -1 19 7 2 9 11 6 20 -5 12 -3 14 7 8 10 -6 12 -4 7 9 -4 10
-7 20 -7 22 0 3 -6 2 -12 -1 -7 -4 -6 -1 2 7 17 14 15 52 -2 42 -7 -4 -8 -2
-4 4 4 7 14 12 23 12 11 0 9 5 -8 20 -14 12 -17 18 -8 14 13 -4 15 0 11 23 -2
15 -10 34 -16 42 -8 11 -8 13 2 7 6 -4 12 -2 12 3 0 6 -5 11 -11 11 -6 0 -9 9
-6 19 3 11 -1 22 -9 25 -7 3 -11 12 -8 21 3 8 10 12 15 9 14 -9 10 3 -7 21
-14 13 -14 18 -2 32 11 14 11 16 -1 8 -11 -6 -13 -3 -8 14 4 17 0 24 -16 31
-12 5 -17 9 -11 9 12 1 6 51 -6 51 -4 0 -13 13 -20 30 -7 18 -17 27 -24 23 -6
-4 -4 2 4 12 14 17 13 18 -8 13 -19 -5 -21 -4 -11 8 9 11 8 14 -5 14 -10 0
-14 5 -11 10 3 6 1 10 -4 10 -6 0 -11 7 -11 16 0 12 -6 15 -21 11 -15 -4 -19
-3 -11 5 7 7 4 16 -9 29 -10 10 -21 19 -25 19 -3 -1 -18 13 -35 31 -16 17 -29
28 -29 23 0 -4 -6 0 -13 11 -9 11 -19 15 -27 10 -8 -5 -11 -4 -7 2 9 14 -54
58 -76 55 -10 -2 -30 4 -44 13 -13 9 -27 14 -30 12 -2 -3 -16 1 -31 9 -23 12
-29 11 -45 -3 -14 -13 -17 -14 -12 -2 4 10 -1 15 -15 16 -11 1 -18 -2 -15 -8
9 -14 -5 -11 -20 5 -8 7 -11 16 -8 20 4 3 4 6 1 6 -3 0 -12 -8 -19 -17z m265
-62 c3 -5 -1 -11 -9 -14 -9 -4 -12 -1 -8 9 6 16 10 17 17 5z m-236 -53 c-2 -6
5 -14 15 -16 11 -2 17 3 18 15 0 15 1 16 7 2 4 -9 15 -15 25 -13 9 1 17 -3 17
-9 0 -7 5 -5 10 3 8 12 10 12 10 1 0 -8 7 -11 20 -8 11 3 20 1 20 -5 0 -5 5
-6 10 -3 6 4 18 1 27 -7 14 -11 16 -11 9 2 -4 8 -1 7 7 -3 11 -14 16 -15 20
-5 4 9 6 7 6 -4 1 -9 6 -20 13 -24 7 -4 8 -3 4 4 -5 8 -2 10 8 6 9 -3 13 -10
10 -15 -3 -5 0 -9 6 -9 6 0 8 -5 4 -12 -6 -10 -4 -10 8 0 14 11 17 10 23 -7 3
-12 11 -21 16 -21 6 0 7 -4 4 -10 -5 -9 7 -14 27 -12 3 1 9 -5 12 -14 4 -10 2
-13 -7 -8 -6 3 -1 -4 13 -17 14 -13 20 -20 13 -15 -8 5 -13 4 -13 -2 0 -6 9
-14 20 -17 11 -3 20 -11 20 -16 0 -6 6 -7 13 -3 8 5 7 2 -2 -10 -13 -15 -12
-19 4 -34 18 -16 18 -16 6 1 -11 14 -11 17 2 17 11 0 14 -7 11 -25 -3 -20 -1
-23 13 -18 15 5 14 3 -2 -10 -16 -13 -18 -18 -7 -29 11 -11 12 -10 7 7 -5 16
-4 17 4 5 5 -9 11 -22 13 -30 2 -8 7 -18 13 -22 6 -5 5 -12 -4 -20 -8 -7 -11
-8 -8 -2 3 6 0 11 -8 11 -13 0 -13 -3 -2 -16 8 -9 18 -23 22 -31 8 -13 7 -13
-8 -1 -15 12 -17 12 -11 -3 3 -9 10 -16 15 -16 5 0 9 -13 9 -30 0 -17 5 -30
13 -30 9 0 9 -2 -1 -9 -17 -10 -17 -21 -2 -31 8 -5 7 -9 -5 -13 -9 -4 -13 -3
-10 2 3 5 1 12 -4 16 -6 3 -8 -4 -6 -16 5 -25 15 -38 15 -20 0 7 5 9 11 5 8
-4 3 -12 -12 -21 -13 -8 -17 -12 -9 -10 13 4 16 -4 15 -38 0 -24 -3 -41 -6
-39 -4 2 -9 -3 -13 -11 -3 -8 -1 -17 3 -20 14 -8 0 -45 -18 -46 -13 -1 -12 -2
2 -6 18 -5 18 -5 0 -20 -11 -8 -12 -12 -3 -8 8 4 6 -1 -4 -9 -20 -16 -33 -51
-15 -41 5 4 6 -1 3 -9 -3 -9 -10 -14 -14 -11 -13 8 -19 -32 -6 -46 8 -9 8 -10
-1 -5 -19 10 -39 -4 -22 -15 11 -7 10 -9 -4 -9 -10 0 -15 -4 -12 -10 3 -5 1
-10 -5 -10 -6 0 -8 -4 -5 -10 3 -5 -1 -10 -10 -10 -10 0 -13 -5 -9 -12 5 -7 2
-9 -8 -5 -11 4 -21 -4 -32 -26 -8 -18 -16 -25 -16 -17 -1 9 -5 5 -11 -8 -5
-13 -13 -20 -19 -17 -5 3 -14 -5 -20 -19 -5 -14 -12 -26 -15 -26 -4 0 -3 6 1
13 6 9 5 9 -8 0 -8 -7 -18 -10 -22 -6 -4 4 -4 0 -1 -9 5 -13 2 -16 -14 -13
-12 2 -21 0 -21 -5 0 -6 -10 -9 -22 -7 -16 1 -23 -3 -23 -15 0 -9 -4 -20 -8
-25 -5 -4 -8 -3 -7 2 1 6 2 17 1 25 -1 13 -2 13 -11 0 -5 -8 -10 -11 -10 -6 0
5 -8 2 -17 -5 -11 -10 -14 -10 -9 -1 9 15 -6 16 -22 0 -9 -9 -12 -9 -12 2 0
13 -2 13 -10 0 -6 -10 -10 -11 -10 -2 0 6 -5 12 -11 12 -5 0 -8 -4 -5 -9 9
-13 -27 -8 -42 7 -8 7 -19 9 -25 5 -7 -4 -8 0 -4 11 6 14 3 17 -8 12 -9 -3
-14 -2 -11 3 3 5 -1 14 -9 21 -13 11 -14 10 -9 -5 5 -13 4 -16 -4 -11 -7 4
-12 17 -13 29 0 14 -3 17 -6 8 -4 -10 -9 -8 -20 10 -8 13 -12 16 -9 7 3 -10 0
-20 -6 -24 -6 -4 -8 -3 -4 4 3 5 1 12 -4 14 -6 2 -12 13 -13 25 0 12 -5 19
-11 16 -5 -4 -7 1 -3 10 3 9 2 19 -4 22 -5 4 -7 10 -4 15 7 11 -22 7 -32 -5
-4 -4 -2 -5 6 0 10 6 12 4 6 -5 -6 -9 -4 -11 5 -5 9 6 11 4 5 -5 -5 -9 -4 -11
3 -6 8 5 10 2 6 -9 -4 -9 -7 -15 -8 -13 0 2 -12 16 -26 32 -14 16 -20 26 -14
23 15 -9 27 35 12 44 -6 4 -18 5 -27 1 -9 -3 -13 -2 -9 3 4 4 3 14 -3 21 -7 8
-6 14 2 20 8 5 10 3 4 -7 -6 -11 -5 -12 5 -2 20 19 5 27 -22 12 -22 -11 -22
-11 -7 7 13 17 15 29 10 76 -2 16 -11 4 -16 -21 -2 -12 0 -19 4 -17 4 3 8 -1
8 -9 0 -11 -4 -12 -14 -3 -7 6 -11 13 -8 16 3 3 -5 12 -17 19 l-23 14 25 -7
c14 -3 22 -3 18 1 -4 5 -2 15 5 23 7 9 8 17 2 19 -23 8 -39 22 -32 29 3 4 13
1 21 -5 12 -10 14 -9 12 5 -2 10 -12 18 -25 19 -12 1 -27 8 -34 15 -8 8 -8 11
-1 7 7 -4 18 1 25 10 12 14 12 16 0 8 -11 -6 -13 -4 -8 9 4 10 7 22 7 27 0 4
8 6 18 2 9 -3 4 4 -11 16 -22 18 -25 26 -16 37 14 17 4 48 -12 38 -8 -5 -9 -3
-5 5 6 9 12 9 24 -3 15 -13 17 -12 19 11 1 19 -1 22 -8 12 -6 -10 -9 -5 -9 16
0 23 3 27 10 15 5 -8 10 -11 10 -7 0 5 -10 23 -22 40 -12 17 -16 27 -8 22 10
-6 12 -3 8 12 -5 17 -1 21 19 18 13 -1 21 0 18 3 -2 3 0 11 7 19 9 11 8 13 -1
11 -7 -2 -17 7 -22 20 -6 15 -5 21 1 17 6 -3 10 -1 10 4 0 6 5 11 11 11 8 0 7
-5 -1 -15 -7 -9 -10 -18 -6 -22 3 -3 6 -1 6 6 0 7 4 10 8 7 4 -2 9 4 9 15 1
10 -2 19 -8 19 -5 0 -9 5 -9 11 0 6 6 9 13 6 10 -4 12 3 9 24 -3 18 0 29 7 29
7 0 9 -4 6 -10 -4 -6 1 -7 11 -3 12 4 14 8 6 11 -10 3 -10 7 -1 18 6 8 15 11
20 8 5 -3 6 2 3 10 -3 9 -10 16 -16 16 -5 0 -6 -6 -2 -12 4 -7 3 -9 -1 -5 -5
4 -10 14 -11 22 -2 11 3 12 22 5 21 -8 29 -7 22 3 -2 2 3 11 10 20 8 9 11 20
8 26 -7 11 22 24 35 16 5 -4 6 2 2 11 -4 11 -2 15 4 11 6 -4 16 0 23 8 11 13
10 18 -6 30 -14 10 -15 13 -4 12 8 -2 20 -6 27 -10 6 -4 14 -3 18 3 4 6 12 7
18 3 13 -8 -12 28 -28 39 -14 10 38 4 54 -7 10 -5 12 -4 7 3 -10 16 7 15 23 0
11 -11 11 -9 1 12 -12 22 -12 24 2 12 13 -10 17 -10 22 3 6 18 17 20 14 3z
m-113 -47 c3 -5 0 -13 -6 -17 -7 -4 -9 -3 -5 4 3 5 0 13 -6 15 -9 4 -10 6 -1
6 6 1 14 -3 18 -8z m-35 -46 c0 -12 -19 -12 -23 0 -4 9 -1 12 9 8 7 -3 14 -7
14 -8z m-30 -10 c0 -1 -6 -7 -13 -13 -10 -8 -13 -6 -13 7 0 11 6 17 13 14 7
-3 13 -6 13 -8z m-49 -69 c-6 -7 -8 -16 -4 -20 4 -4 0 -4 -10 0 -19 7 -23 25
-4 22 6 -2 11 3 9 10 -1 8 2 11 8 7 8 -5 8 -11 1 -19z m-56 -55 c3 -5 2 -12
-3 -15 -5 -3 -9 1 -9 9 0 17 3 19 12 6z m-32 -56 c-3 -9 -8 -14 -10 -11 -3 3
-2 9 2 15 9 16 15 13 8 -4z m-18 -115 c3 -5 -1 -10 -10 -10 -9 0 -13 5 -10 10
3 6 8 10 10 10 2 0 7 -4 10 -10z m-25 -245 c0 -2 -9 -3 -19 -2 -11 0 -18 5
-15 9 4 6 34 0 34 -7z m-23 -34 c-1 -15 -4 -17 -14 -9 -15 12 -17 22 -3 13 6
-3 10 -1 10 4 0 6 2 11 4 11 3 0 4 -9 3 -19z m16 -76 c-3 -9 -8 -14 -10 -11
-3 3 -2 9 2 15 9 16 15 13 8 -4z m29 -40 c0 -5 -5 -11 -11 -13 -6 -2 -11 4
-11 13 0 9 5 15 11 13 6 -2 11 -8 11 -13z m73 -165 c3 -5 1 -10 -4 -10 -6 0
-11 5 -11 10 0 6 2 10 4 10 3 0 8 -4 11 -10z"/>
<path d="M5710 4819 c0 -5 5 -7 10 -4 6 3 10 8 10 11 0 2 -4 4 -10 4 -5 0 -10
-5 -10 -11z"/>
<path d="M4923 4763 c4 -3 1 -13 -6 -22 -10 -14 -10 -14 4 -4 9 7 20 9 25 5 4
-4 2 1 -5 11 -7 9 -16 17 -19 17 -3 0 -2 -3 1 -7z"/>
<path d="M5733 4665 c0 -8 4 -12 9 -9 5 3 6 10 3 15 -9 13 -12 11 -12 -6z"/>
<path d="M4911 4596 c-9 -11 -7 -15 9 -19 16 -4 19 -2 11 7 -6 7 -8 16 -4 19
3 4 4 7 1 7 -3 0 -11 -6 -17 -14z"/>
<path d="M4931 4514 c0 -11 3 -14 6 -6 3 7 2 16 -1 19 -3 4 -6 -2 -5 -13z"/>
<path d="M4910 4479 c0 -5 5 -7 10 -4 6 3 10 8 10 11 0 2 -4 4 -10 4 -5 0 -10
-5 -10 -11z"/>
<path d="M4743 4038 c-3 -6 -1 -8 5 -4 5 3 13 0 15 -6 4 -10 6 -10 6 0 1 8 6
10 14 6 6 -4 8 -3 4 1 -12 13 -36 15 -44 3z"/>
<path d="M4780 4016 c0 -2 7 -6 15 -10 8 -3 15 -1 15 4 0 6 -7 10 -15 10 -8 0
-15 -2 -15 -4z"/>
<path d="M4815 3990 c-3 -5 -1 -10 4 -10 6 0 11 5 11 10 0 6 -2 10 -4 10 -3 0
-8 -4 -11 -10z"/>
<path d="M6105 3270 c-3 -5 -1 -10 4 -10 6 0 11 5 11 10 0 6 -2 10 -4 10 -3 0
-8 -4 -11 -10z"/>
<path d="M6979 2873 c-13 -16 -12 -17 4 -4 16 13 21 21 13 21 -2 0 -10 -8 -17
-17z"/>
<path d="M5107 2244 c3 -7 -3 -13 -14 -14 -53 -2 -71 -6 -66 -14 3 -4 -4 -5
-16 -1 -15 4 -21 3 -19 -6 2 -7 -3 -14 -9 -15 -7 -1 -18 -2 -24 -3 -5 0 -7 -5
-4 -11 3 -5 -1 -10 -9 -10 -8 0 -21 -9 -29 -20 -8 -11 -17 -17 -20 -13 -4 3
-7 -1 -7 -10 0 -9 -7 -20 -16 -25 -9 -5 -15 -12 -15 -15 3 -19 0 -27 -10 -27
-5 0 -7 5 -3 12 4 7 3 8 -5 4 -6 -4 -9 -12 -6 -17 4 -5 -1 -12 -9 -15 -9 -3
-14 -10 -11 -14 3 -4 -2 -13 -10 -20 -8 -7 -12 -16 -9 -21 3 -5 0 -9 -7 -9 -9
0 -9 -3 0 -14 7 -9 8 -15 2 -18 -5 -1 -12 -16 -15 -33 -2 -16 -5 -30 -6 -30
-1 0 -3 -19 -5 -41 -1 -23 -5 -46 -9 -52 -3 -6 -2 -13 3 -17 6 -3 8 -12 5 -19
-3 -8 -1 -17 5 -21 6 -3 11 -11 11 -16 0 -6 -5 -7 -11 -3 -8 4 -8 0 0 -15 9
-16 9 -21 -1 -21 -8 0 -6 -4 4 -11 12 -6 16 -20 14 -43 -1 -23 3 -38 15 -47 9
-7 15 -17 13 -24 -3 -6 2 -18 10 -25 9 -7 13 -17 9 -23 -3 -5 -2 -8 3 -5 14 9
34 -16 34 -42 0 -5 6 -10 14 -10 8 0 18 -9 21 -20 3 -11 11 -20 16 -20 6 0 8
-4 5 -8 -2 -4 5 -9 16 -9 24 -2 40 -22 30 -38 -3 -5 1 -4 10 3 12 10 18 9 28
-3 11 -13 10 -14 -2 -10 -11 5 -14 -4 -14 -40 1 -25 5 -45 9 -45 5 0 5 -6 0
-12 -11 -17 -11 -108 -1 -108 5 0 4 -9 -2 -19 -13 -26 -13 -34 3 -25 8 5 8 2
-2 -9 -11 -14 -11 -17 0 -17 11 0 11 -2 -1 -10 -13 -9 -13 -10 0 -10 13 0 13
-1 0 -10 -13 -9 -13 -10 0 -10 12 0 13 -2 1 -9 -11 -7 -11 -9 0 -13 11 -4 11
-10 2 -31 -7 -15 -9 -27 -5 -27 4 0 7 -27 6 -60 -1 -94 -1 -94 171 -95 118 -1
148 1 152 12 5 13 6 72 4 298 0 39 0 81 1 95 0 14 -2 39 -6 55 -7 36 3 97 15
89 5 -3 9 0 9 6 0 6 4 9 9 6 5 -3 12 1 15 10 3 8 10 13 14 10 5 -3 19 8 32 25
14 16 31 29 38 29 7 0 11 4 8 9 -3 5 1 12 10 15 9 3 12 11 8 18 -5 8 0 7 11
-2 17 -14 18 -14 7 7 -10 19 -9 21 11 17 12 -2 17 -2 10 1 -13 7 10 59 37 83
13 12 12 13 -5 8 -18 -6 -19 -5 -3 7 14 11 15 16 5 26 -9 10 -8 11 7 5 14 -5
17 -4 12 5 -4 6 -2 19 6 28 9 12 9 15 1 9 -9 -5 -11 -2 -7 8 3 9 12 12 22 9
10 -4 6 3 -8 15 -21 18 -22 21 -5 15 17 -6 18 -5 7 9 -9 11 -10 18 -2 23 6 3
7 12 3 18 -12 19 -12 37 -2 37 6 0 7 5 3 12 -4 7 -7 27 -6 46 2 24 -1 31 -9
26 -8 -4 -9 -3 -5 5 4 6 2 19 -6 28 -9 12 -9 15 -1 9 9 -5 11 -2 7 8 -3 9 -11
16 -16 16 -7 0 -6 5 1 13 8 10 6 19 -9 35 -11 12 -20 28 -20 37 0 8 -4 15 -9
15 -10 0 -27 39 -23 54 2 5 -4 6 -13 3 -14 -6 -20 4 -16 26 1 5 -2 6 -6 4 -5
-3 -13 1 -20 8 -10 11 -10 15 0 18 7 3 4 6 -6 6 -11 1 -26 10 -35 21 -10 11
-27 22 -39 25 -12 2 -37 11 -55 19 -19 9 -45 16 -58 15 -14 0 -38 2 -53 4 -22
3 -27 1 -22 -11 5 -12 1 -12 -15 3 -11 10 -20 13 -20 7 0 -7 -5 -12 -11 -12
-5 0 -8 4 -5 8 3 5 -1 9 -8 9 -8 0 -12 -6 -9 -13z m7 -186 c-6 -10 -4 -10 7
-2 8 6 40 9 74 7 33 -3 72 -5 88 -6 19 -1 27 -7 27 -21 0 -12 5 -16 14 -13 9
4 17 -2 21 -14 6 -17 9 -18 23 -7 10 7 14 8 9 3 -4 -4 0 -16 9 -26 17 -19 47
-142 33 -133 -5 3 -9 0 -9 -5 0 -6 4 -11 8 -11 9 0 9 -130 0 -145 -3 -6 -8
-22 -11 -36 -8 -30 -74 -102 -88 -94 -5 4 -9 2 -9 -2 0 -5 -40 -8 -90 -8 -49
0 -90 2 -90 5 0 3 -15 5 -32 5 -20 0 -32 5 -31 12 1 6 -5 10 -13 9 -22 -3 -91
63 -107 104 -7 19 -13 46 -13 60 1 14 -3 28 -9 32 -6 5 -4 8 5 8 12 0 13 2 1
9 -8 5 -10 14 -5 22 4 7 8 25 8 40 1 15 4 30 8 34 4 4 4 13 1 21 -3 8 0 14 6
14 6 0 8 7 4 17 -4 10 -2 14 5 9 6 -3 13 2 17 13 7 23 55 80 55 66 0 -5 4 -5
8 1 4 7 23 19 42 27 44 19 42 19 34 5z"/>
</g>
</svg>
